<?xml version="1.0" encoding="utf-8"?>
<!-- Generator: Adobe Illustrator 16.0.0, SVG Export Plug-In . SVG Version: 6.00 Build 0)  -->
<!DOCTYPE svg PUBLIC "-//W3C//DTD SVG 1.1//EN" "http://www.w3.org/Graphics/SVG/1.1/DTD/svg11.dtd">
<svg version="1.1" id="Layer_1" xmlns="http://www.w3.org/2000/svg" xmlns:xlink="http://www.w3.org/1999/xlink" x="0px" y="0px"
	 width="185.5px" height="185.5px" viewBox="0 0 185.5 185.5" enable-background="new 0 0 185.5 185.5" xml:space="preserve">
<circle fill="none" stroke="#231F20" stroke-width="5" stroke-miterlimit="10" cx="92.958" cy="92.958" r="88.958"/>
<path display="none" fill-rule="evenodd" clip-rule="evenodd" fill="#231F20" d="M150.68,93.737
	c-9.011-11.092-17.714-21.806-26.697-32.864c3.054-5.049,6.096-10.077,9.445-15.615c13.547,16.485,26.622,32.396,39.851,48.495
	c-13.314,16.203-26.402,32.129-39.806,48.438c-3.257-5.315-6.274-10.239-9.506-15.513C132.765,115.83,141.538,105.011,150.68,93.737
	z"/>
<path display="none" fill-rule="evenodd" clip-rule="evenodd" fill="#231F20" d="M12.214,93.745
	C25.626,77.433,38.596,61.658,52.021,45.33c3.019,4.912,5.925,9.133,8.19,13.674c0.594,1.19-0.336,3.744-1.363,5.042
	c-7.837,9.907-15.872,19.657-24.039,29.695c8.104,9.975,15.979,19.854,24.099,29.529c2.059,2.453,2.402,4.283,0.545,6.946
	c-2.537,3.641-4.699,7.542-7.413,11.971C38.574,125.808,25.518,109.927,12.214,93.745z"/>
<path display="none" fill-rule="evenodd" clip-rule="evenodd" fill="#231F20" d="M94.512,140.791c-6.004,0-11.469,0-17.543,0
	c3.374-11.501,6.679-22.732,9.962-33.97c5.492-18.798,11.024-37.585,16.4-56.417c0.852-2.982,2.045-4.467,5.42-4.217
	c4.243,0.314,8.528,0.076,13.428,0.076C112.857,78.113,103.733,109.286,94.512,140.791z"/>
<path fill="#231F20" d="M126.35,25.758h-67.2c-4.635,0-8.4,3.766-8.4,8.4v117.6c0,4.644,3.765,8.4,8.4,8.4h67.2
	c4.644,0,8.4-3.757,8.4-8.4v-117.6C134.75,29.523,130.993,25.758,126.35,25.758z M88.55,34.158h8.4c2.313,0,4.2,1.882,4.2,4.2
	s-1.887,4.2-4.2,4.2h-8.4c-2.317,0-4.2-1.883-4.2-4.2S86.232,34.158,88.55,34.158z M96.95,151.758h-8.4c-2.317,0-4.2-1.887-4.2-4.2
	c0-2.313,1.882-4.199,4.2-4.199h8.4c2.313,0,4.2,1.887,4.2,4.199C101.15,149.871,99.264,151.758,96.95,151.758z M126.35,134.958
	h-67.2v-84h67.2V134.958z"/>
</svg>
